<?xml version="1.0" encoding="UTF-8"?>
<svg id="uuid-bfac62ae-4901-4846-a7c3-2c8941d9811e" data-name="_x38_6b061ad-ee6b-4fd7-852c-742483397385" xmlns="http://www.w3.org/2000/svg" viewBox="0 0 24 24">
  <path d="M7.8.76C3.83,2.25.95,5.73.21,9.9h7.59V.76Z" style="fill: #005293;"/>
  <path d="M.19,14.1c.74,4.17,3.62,7.65,7.59,9.15v-9.15H.19Z" style="fill: #005293;"/>
  <path d="M23.82,9.9C22.8,4.18,17.83.01,12.02,0v9.9h11.8Z" style="fill: #005293;"/>
  <path d="M23.82,14.1h-11.8v9.9c5.81-.01,10.78-4.18,11.8-9.9Z" style="fill: #005293;"/>
  <path d="M23.82,14.1c.24-1.39.24-2.81,0-4.2h-11.8V0c-1.43,0-2.86.26-4.2.76v9.14H.19c-.25,1.39-.25,2.81,0,4.2h7.59v9.15c1.36.51,2.79.76,4.24.75v-9.9h11.8Z" style="fill: #fecb00;"/>
</svg>