<?xml version="1.0" encoding="UTF-8"?>
<svg id="uuid-15951652-87b1-4368-8ba0-f32ed716b437" data-name="圖層_1" xmlns="http://www.w3.org/2000/svg" viewBox="0 0 100 100">
  <circle cx="50" cy="50" r="40.77" style="fill: #fff;"/>
  <path d="M47.5,73.03c-.42,0-.76-.3-.87-.71-.31-1.17-1.38-2.04-2.65-2.04h-25.13V26.35h28.51c1.52,0,2.75,1.23,2.75,2.75v43.93h-2.61Z" style="fill: none; stroke: #49515c; stroke-linecap: round; stroke-linejoin: round; stroke-width: 1.4px;"/>
  <polyline points="42.3 74.5 14.63 74.5 14.63 30.58" style="fill: none; stroke: #49515c; stroke-linecap: round; stroke-linejoin: round; stroke-width: 1.4px;"/>
  <path d="M53.58,72.32c-.11.41-.45.71-.87.71h-2.61V29.1c0-1.52,1.23-2.75,2.75-2.75h.71" style="fill: none; stroke: #49515c; stroke-linecap: round; stroke-linejoin: round; stroke-width: 1.4px;"/>
  <polyline points="79.95 26.35 81.37 26.35 81.37 36.91 81.37 60.85 81.37 70.28 79.57 70.28" style="fill: none; stroke: #49515c; stroke-linecap: round; stroke-linejoin: round; stroke-width: 1.4px;"/>
  <polyline points="85.59 30.58 85.59 33.53 85.59 56.76 85.59 74.5 78.67 74.5" style="fill: none; stroke: #49515c; stroke-linecap: round; stroke-linejoin: round; stroke-width: 1.4px;"/>
  <line x1="47.58" y1="36.49" x2="52.64" y2="36.49" style="fill: none; stroke: #49515c; stroke-linecap: round; stroke-linejoin: round; stroke-width: 1.4px;"/>
  <line x1="47.58" y1="40.71" x2="52.64" y2="40.71" style="fill: none; stroke: #49515c; stroke-linecap: round; stroke-linejoin: round; stroke-width: 1.4px;"/>
  <line x1="47.58" y1="44.94" x2="52.64" y2="44.94" style="fill: none; stroke: #49515c; stroke-linecap: round; stroke-linejoin: round; stroke-width: 1.4px;"/>
  <line x1="47.58" y1="49.16" x2="52.64" y2="49.16" style="fill: none; stroke: #49515c; stroke-linecap: round; stroke-linejoin: round; stroke-width: 1.4px;"/>
  <line x1="47.58" y1="53.39" x2="52.64" y2="53.39" style="fill: none; stroke: #49515c; stroke-linecap: round; stroke-linejoin: round; stroke-width: 1.4px;"/>
  <line x1="47.58" y1="57.61" x2="52.64" y2="57.61" style="fill: none; stroke: #49515c; stroke-linecap: round; stroke-linejoin: round; stroke-width: 1.4px;"/>
  <line x1="47.58" y1="61.83" x2="52.64" y2="61.83" style="fill: none; stroke: #49515c; stroke-linecap: round; stroke-linejoin: round; stroke-width: 1.4px;"/>
  <line x1="47.58" y1="66.06" x2="52.64" y2="66.06" style="fill: none; stroke: #49515c; stroke-linecap: round; stroke-linejoin: round; stroke-width: 1.4px;"/>
  <line x1="47.58" y1="32.27" x2="52.64" y2="32.27" style="fill: none; stroke: #49515c; stroke-linecap: round; stroke-linejoin: round; stroke-width: 1.4px;"/>
  <line x1="24.98" y1="34.23" x2="41.84" y2="34.23" style="fill: none; stroke: #49515c; stroke-linecap: round; stroke-linejoin: round; stroke-width: 1.4px;"/>
  <line x1="24.98" y1="39.14" x2="41.84" y2="39.14" style="fill: none; stroke: #49515c; stroke-linecap: round; stroke-linejoin: round; stroke-width: 1.4px;"/>
  <line x1="24.98" y1="44.06" x2="41.84" y2="44.06" style="fill: none; stroke: #49515c; stroke-linecap: round; stroke-linejoin: round; stroke-width: 1.4px;"/>
  <line x1="24.98" y1="48.97" x2="41.84" y2="48.97" style="fill: none; stroke: #49515c; stroke-linecap: round; stroke-linejoin: round; stroke-width: 1.4px;"/>
  <line x1="24.98" y1="53.88" x2="41.84" y2="53.88" style="fill: none; stroke: #49515c; stroke-linecap: round; stroke-linejoin: round; stroke-width: 1.4px;"/>
  <line x1="24.98" y1="58.79" x2="34.96" y2="58.79" style="fill: none; stroke: #49515c; stroke-linecap: round; stroke-linejoin: round; stroke-width: 1.4px;"/>
  <path d="M76.68,28.43l-1.06-2.57c-.09-.23-.35-.34-.58-.27l-2.39.78c-.18.06-.38,0-.51-.15-.23-.27-.48-.52-.75-.75-.15-.13-.21-.32-.15-.51l.78-2.39c.08-.23-.04-.49-.27-.58l-2.57-1.06c-.23-.09-.49,0-.6.22l-1.14,2.24c-.09.17-.27.27-.46.26-.35-.02-.71-.02-1.06,0-.19.01-.38-.08-.46-.26l-1.14-2.25c-.11-.22-.37-.32-.6-.22l-2.57,1.06c-.23.09-.34.35-.27.58l.78,2.39c.06.18,0,.38-.15.51-.27.23-.52.48-.75.75-.13.15-.32.21-.51.15l-2.39-.78c-.23-.08-.49.04-.58.27l-1.06,2.57c-.09.23,0,.49.22.6l2.24,1.14c.17.09.27.27.26.46-.02.35-.02.71,0,1.06.01.19-.08.38-.26.46l-2.25,1.14c-.22.11-.32.37-.22.6l1.06,2.57c.09.23.35.34.58.27l2.39-.78c.18-.06.38,0,.51.15.23.27.48.52.75.75.15.13.21.32.15.51l-.78,2.39c-.08.23.04.49.27.58l2.57,1.06c.23.09.49,0,.6-.22l1.14-2.24c.09-.17.27-.27.46-.26.35.02.71.02,1.06,0,.19-.01.38.08.46.26l1.14,2.25c.11.22.37.32.6.22l2.57-1.06c.23-.09.34-.35.27-.58l-.78-2.39c-.06-.18,0-.38.15-.51.27-.23.52-.48.75-.75.13-.15.32-.21.51-.15l2.39.78c.23.08.49-.04.58-.27l1.06-2.57c.09-.23,0-.49-.22-.6l-2.24-1.14c-.17-.09-.27-.27-.26-.46.02-.35.02-.71,0-1.06-.01-.19.08-.38.26-.46l2.25-1.14c.22-.11.32-.37.22-.6Z" style="fill: none; stroke: #0074e1; stroke-linecap: round; stroke-linejoin: round; stroke-width: 1.5px;"/>
  <path d="M69.6,29.85c.72,1.75-.11,3.75-1.85,4.47-1.75.72-3.75-.11-4.47-1.85-.72-1.75.11-3.75,1.85-4.47,1.75-.72,3.75.11,4.47,1.85Z" style="fill: none; stroke: #0074e1; stroke-linecap: round; stroke-linejoin: round; stroke-width: 1.5px;"/>
  <g>
    <path d="M75.86,66.38h-.03s0,.02,0,.03c0,1.69-4.26,3.06-9.52,3.06s-9.52-1.37-9.52-3.06c0-.01,0-.02,0-.03h0v6.83h0s0,.02,0,.03c0,1.69,4.26,3.06,9.52,3.06s9.52-1.37,9.52-3.06c0-.01,0-.03,0-.03h.03v-6.83Z" style="fill: none; stroke: #0074e1; stroke-linecap: round; stroke-linejoin: round; stroke-width: 1.5px;"/>
    <path d="M75.86,59.51h-.03s0,.03,0,.04c0,1.69-4.26,3.06-9.52,3.06s-9.52-1.37-9.52-3.06c0-.01,0-.03,0-.04h0v6.88h0s0,0,0,.02c0,1.69,4.26,3.05,9.52,3.05s9.52-1.36,9.52-3.05c0-.01,0-.02,0-.02h.03v-6.88Z" style="fill: none; stroke: #0074e1; stroke-linecap: round; stroke-linejoin: round; stroke-width: 1.5px;"/>
    <path d="M75.86,52.65h-.03s0,0,0,0c0,1.69-4.26,3.06-9.52,3.06s-9.52-1.37-9.52-3.06c0,0,0,0,0,0h0v6.83h0s0,.01,0,.02c0,1.69,4.26,3.05,9.52,3.05s9.52-1.36,9.52-3.05c0-.01,0-.02,0-.02h.03v-6.83Z" style="fill: none; stroke: #0074e1; stroke-linecap: round; stroke-linejoin: round; stroke-width: 1.5px;"/>
    <path d="M75.83,52.66c0,1.69-4.26,3.06-9.52,3.06s-9.52-1.37-9.52-3.06,4.26-3.06,9.52-3.06,9.52,1.37,9.52,3.06Z" style="fill: none; stroke: #0074e1; stroke-linecap: round; stroke-linejoin: round; stroke-width: 1.5px;"/>
  </g>
</svg>