<?xml version="1.0" encoding="UTF-8"?>
<svg id="uuid-50aa9c93-f19e-4969-93ea-71811167b9f6" data-name="圖層_1" xmlns="http://www.w3.org/2000/svg" viewBox="0 0 100 100">
  <circle cx="50" cy="50.25" r="41.5" style="fill: #fff;"/>
  <line x1="30.36" y1="40.17" x2="48.82" y2="40.17" style="fill: none; stroke: #49515c; stroke-linecap: round; stroke-linejoin: round; stroke-width: 1.4px;"/>
  <path d="M23.37,27.93h7.71c.65,0,1.18-.53,1.18-1.18v-2.86" style="fill: none; stroke: #49515c; stroke-linecap: round; stroke-linejoin: round; stroke-width: 1.4px;"/>
  <line x1="30.36" y1="34.7" x2="60.82" y2="34.7" style="fill: none; stroke: #49515c; stroke-linecap: round; stroke-linejoin: round; stroke-width: 1.4px;"/>
  <path d="M72.98,31.35v-11.94c0-2.71-2.2-4.91-4.9-4.91h-12.48" style="fill: none; stroke: #49515c; stroke-linecap: round; stroke-linejoin: round; stroke-width: 1.4px;"/>
  <path d="M35.59,14.51h-12.48c-2.7,0-4.9,2.2-4.9,4.91v9.66s0,51.86,0,51.86c0,4.03,3.28,7.32,7.32,7.32h40.14c3.45,0,6.35-2.4,7.12-5.62" style="fill: none; stroke: #49515c; stroke-linecap: round; stroke-linejoin: round; stroke-width: 1.4px;"/>
  <path d="M68.43,80.93c0,1.53-1.24,2.77-2.77,2.77H25.52c-1.53,0-2.77-1.24-2.77-2.77V29.08c0-.73.29-1.44.81-1.96l7.25-7.25c.52-.52,1.22-.81,1.96-.81h2.82" style="fill: none; stroke: #49515c; stroke-linecap: round; stroke-linejoin: round; stroke-width: 1.4px;"/>
  <path d="M55.59,19.06h12.48c.2,0,.36.16.36.36v11.94" style="fill: none; stroke: #49515c; stroke-linecap: round; stroke-linejoin: round; stroke-width: 1.4px;"/>
  <line x1="36.42" y1="49.17" x2="48.82" y2="49.17" style="fill: none; stroke: #49515c; stroke-linecap: round; stroke-linejoin: round; stroke-width: 1.4px;"/>
  <line x1="36.42" y1="62.1" x2="48.54" y2="62.1" style="fill: none; stroke: #49515c; stroke-linecap: round; stroke-linejoin: round; stroke-width: 1.4px;"/>
  <line x1="36.51" y1="55.63" x2="48.82" y2="55.63" style="fill: none; stroke: #49515c; stroke-linecap: round; stroke-linejoin: round; stroke-width: 1.4px;"/>
  <path d="M53.62,11.43h-3.48v-.72c0-1.36-1.1-2.46-2.46-2.46h-4.17c-1.36,0-2.46,1.1-2.46,2.46v.72h-3.48c-1.08,0-1.97.89-1.97,1.97v6.06c0,1.08.89,1.97,1.97,1.97h16.06c1.08,0,1.97-.89,1.97-1.97v-6.06c0-1.08-.89-1.97-1.97-1.97Z" style="fill: none; stroke: #0074e1; stroke-linecap: round; stroke-linejoin: round; stroke-width: 1.5px;"/>
  <line x1="41.5" y1="16.89" x2="49.68" y2="16.89" style="fill: none; stroke: #0074e1; stroke-linecap: round; stroke-linejoin: round; stroke-width: 1.5px;"/>
  <line x1="30.36" y1="49.17" x2="31.84" y2="49.17" style="fill: none; stroke: #0074e1; stroke-linecap: round; stroke-linejoin: round; stroke-width: 1.5px;"/>
  <line x1="30.36" y1="55.81" x2="31.84" y2="55.81" style="fill: none; stroke: #0074e1; stroke-linecap: round; stroke-linejoin: round; stroke-width: 1.5px;"/>
  <line x1="30.36" y1="62.1" x2="31.84" y2="62.1" style="fill: none; stroke: #0074e1; stroke-linecap: round; stroke-linejoin: round; stroke-width: 1.5px;"/>
  <path d="M76.33,63.01l-1.06-2.57c-.09-.23-.35-.34-.58-.27l-2.39.78c-.18.06-.38,0-.51-.15-.23-.27-.48-.52-.75-.75-.15-.13-.21-.32-.15-.51l.78-2.39c.08-.23-.04-.49-.27-.58l-2.57-1.06c-.23-.09-.49,0-.6.22l-1.14,2.24c-.09.17-.27.27-.46.26-.35-.02-.71-.02-1.06,0-.19.01-.38-.08-.46-.26l-1.14-2.25c-.11-.22-.37-.32-.6-.22l-2.57,1.06c-.23.09-.34.35-.27.58l.78,2.39c.06.18,0,.38-.15.51-.27.23-.52.48-.75.75-.13.15-.32.21-.51.15l-2.39-.78c-.23-.08-.49.04-.58.27l-1.06,2.57c-.09.23,0,.49.22.6l2.24,1.14c.17.09.27.27.26.46-.02.35-.02.71,0,1.06.01.19-.08.38-.26.46l-2.25,1.14c-.22.11-.32.37-.22.6l1.06,2.57c.09.23.35.34.58.27l2.39-.78c.18-.06.38,0,.51.15.23.27.48.52.75.75.15.13.21.32.15.51l-.78,2.39c-.08.23.04.49.27.58l2.57,1.06c.23.09.49,0,.6-.22l1.14-2.24c.09-.17.27-.27.46-.26.35.02.71.02,1.06,0,.19-.01.38.08.46.26l1.14,2.25c.11.22.37.32.6.22l2.57-1.06c.23-.09.34-.35.27-.58l-.78-2.39c-.06-.18,0-.38.15-.51.27-.23.52-.48.75-.75.13-.15.32-.21.51-.15l2.39.78c.23.08.49-.04.58-.27l1.06-2.57c.09-.23,0-.49-.22-.6l-2.24-1.14c-.17-.09-.27-.27-.26-.46.02-.35.02-.71,0-1.06-.01-.19.08-.38.26-.46l2.25-1.14c.22-.11.32-.37.22-.6Z" style="fill: none; stroke: #0074e1; stroke-linecap: round; stroke-linejoin: round; stroke-width: 1.5px;"/>
  <path d="M69.26,64.44c.72,1.75-.11,3.75-1.85,4.47-1.75.72-3.75-.11-4.47-1.85-.72-1.75.11-3.75,1.85-4.47,1.75-.72,3.75.11,4.47,1.85Z" style="fill: none; stroke: #0074e1; stroke-linecap: round; stroke-linejoin: round; stroke-width: 1.5px;"/>
  <path d="M68.55,43.26c3.43-.49,7.04.33,10.01,2.6,2.97,2.27,4.71,5.54,5.12,8.98" style="fill: none; stroke: #0074e1; stroke-linecap: round; stroke-linejoin: round; stroke-width: 1.5px;"/>
  <path d="M89.73,53.36c-.62-4.75-3.06-9.26-7.17-12.41-4.11-3.14-9.1-4.32-13.85-3.68" style="fill: none; stroke: #0074e1; stroke-linecap: round; stroke-linejoin: round; stroke-width: 1.5px;"/>
  <path d="M77.08,55.81c-.17-1.78-1.05-3.48-2.58-4.66s-3.41-1.57-5.17-1.27" style="fill: none; stroke: #0074e1; stroke-linecap: round; stroke-linejoin: round; stroke-width: 1.5px;"/>
</svg>